<mxfile host="app.diagrams.net" agent="Mozilla/5.0 (Windows NT 10.0; Win64; x64) AppleWebKit/537.36 (KHTML, like Gecko) Chrome/122.0.0.0 Safari/537.36" version="26.2.9">
  <diagram name="1 oldal" id="ZRo3TNaSbQ_DCoS2osNK">
    <mxGraphModel dx="3558" dy="1001" grid="1" gridSize="10" guides="1" tooltips="1" connect="1" arrows="1" fold="1" page="1" pageScale="1" pageWidth="827" pageHeight="1169" math="0" shadow="0">
      <root>
        <mxCell id="0" />
        <mxCell id="1" parent="0" />
        <mxCell id="dzjlwGBeUNjgORHqqu2u-1" value="" style="rounded=0;whiteSpace=wrap;html=1;" vertex="1" parent="1">
          <mxGeometry x="-1010" y="470" width="1080" height="480" as="geometry" />
        </mxCell>
        <mxCell id="dzjlwGBeUNjgORHqqu2u-2" value="" style="rounded=0;whiteSpace=wrap;html=1;" vertex="1" parent="1">
          <mxGeometry x="-1010" y="470" width="1080" height="120" as="geometry" />
        </mxCell>
        <mxCell id="dzjlwGBeUNjgORHqqu2u-3" style="edgeStyle=orthogonalEdgeStyle;rounded=0;orthogonalLoop=1;jettySize=auto;html=1;exitX=0.5;exitY=0;exitDx=0;exitDy=0;" edge="1" parent="1" source="dzjlwGBeUNjgORHqqu2u-4">
          <mxGeometry relative="1" as="geometry">
            <mxPoint x="-470" y="930" as="targetPoint" />
          </mxGeometry>
        </mxCell>
        <mxCell id="dzjlwGBeUNjgORHqqu2u-4" value="" style="rounded=0;whiteSpace=wrap;html=1;" vertex="1" parent="1">
          <mxGeometry x="-1010" y="930" width="1080" height="20" as="geometry" />
        </mxCell>
        <mxCell id="dzjlwGBeUNjgORHqqu2u-5" value="" style="rounded=0;whiteSpace=wrap;html=1;" vertex="1" parent="1">
          <mxGeometry x="-30" y="470" width="100" height="120" as="geometry" />
        </mxCell>
        <mxCell id="dzjlwGBeUNjgORHqqu2u-6" value="" style="rounded=0;whiteSpace=wrap;html=1;" vertex="1" parent="1">
          <mxGeometry x="-870" y="500" width="120" height="60" as="geometry" />
        </mxCell>
        <mxCell id="dzjlwGBeUNjgORHqqu2u-7" value="" style="rounded=0;whiteSpace=wrap;html=1;" vertex="1" parent="1">
          <mxGeometry x="-200" y="500" width="120" height="60" as="geometry" />
        </mxCell>
        <mxCell id="dzjlwGBeUNjgORHqqu2u-8" value="" style="rounded=0;whiteSpace=wrap;html=1;" vertex="1" parent="1">
          <mxGeometry x="-690" y="500" width="120" height="60" as="geometry" />
        </mxCell>
        <mxCell id="dzjlwGBeUNjgORHqqu2u-9" value="" style="rounded=0;whiteSpace=wrap;html=1;" vertex="1" parent="1">
          <mxGeometry x="-360" y="500" width="120" height="60" as="geometry" />
        </mxCell>
        <mxCell id="dzjlwGBeUNjgORHqqu2u-10" value="" style="rounded=0;whiteSpace=wrap;html=1;" vertex="1" parent="1">
          <mxGeometry x="-520" y="500" width="120" height="60" as="geometry" />
        </mxCell>
        <mxCell id="dzjlwGBeUNjgORHqqu2u-11" value="" style="rounded=0;whiteSpace=wrap;html=1;" vertex="1" parent="1">
          <mxGeometry x="-10" y="500" width="60" height="60" as="geometry" />
        </mxCell>
        <mxCell id="dzjlwGBeUNjgORHqqu2u-12" value="" style="rounded=0;whiteSpace=wrap;html=1;" vertex="1" parent="1">
          <mxGeometry x="-940" y="590" width="940" height="340" as="geometry" />
        </mxCell>
        <mxCell id="dzjlwGBeUNjgORHqqu2u-13" value="Kezdőlap" style="text;html=1;align=center;verticalAlign=middle;whiteSpace=wrap;rounded=0;" vertex="1" parent="1">
          <mxGeometry x="-870" y="500" width="120" height="60" as="geometry" />
        </mxCell>
        <mxCell id="dzjlwGBeUNjgORHqqu2u-14" value="" style="rounded=0;whiteSpace=wrap;html=1;" vertex="1" parent="1">
          <mxGeometry x="-990" y="500" width="60" height="60" as="geometry" />
        </mxCell>
        <mxCell id="dzjlwGBeUNjgORHqqu2u-15" value="&lt;div&gt;Logo&lt;/div&gt;" style="text;html=1;align=center;verticalAlign=middle;whiteSpace=wrap;rounded=0;" vertex="1" parent="1">
          <mxGeometry x="-990" y="500" width="60" height="60" as="geometry" />
        </mxCell>
        <mxCell id="dzjlwGBeUNjgORHqqu2u-16" value="Étel &amp;amp; Ital" style="text;html=1;align=center;verticalAlign=middle;whiteSpace=wrap;rounded=0;" vertex="1" parent="1">
          <mxGeometry x="-690" y="500" width="120" height="60" as="geometry" />
        </mxCell>
        <mxCell id="dzjlwGBeUNjgORHqqu2u-17" value="Társasok" style="text;html=1;align=center;verticalAlign=middle;whiteSpace=wrap;rounded=0;" vertex="1" parent="1">
          <mxGeometry x="-520" y="500" width="120" height="60" as="geometry" />
        </mxCell>
        <mxCell id="dzjlwGBeUNjgORHqqu2u-18" value="Foglalás" style="text;html=1;align=center;verticalAlign=middle;whiteSpace=wrap;rounded=0;" vertex="1" parent="1">
          <mxGeometry x="-360" y="500" width="120" height="60" as="geometry" />
        </mxCell>
        <mxCell id="dzjlwGBeUNjgORHqqu2u-19" value="Kapcsolat" style="text;html=1;align=center;verticalAlign=middle;whiteSpace=wrap;rounded=0;" vertex="1" parent="1">
          <mxGeometry x="-200" y="500" width="120" height="60" as="geometry" />
        </mxCell>
        <mxCell id="dzjlwGBeUNjgORHqqu2u-20" value="Profilom" style="text;html=1;align=center;verticalAlign=middle;whiteSpace=wrap;rounded=0;" vertex="1" parent="1">
          <mxGeometry x="-10" y="500" width="60" height="60" as="geometry" />
        </mxCell>
        <mxCell id="dzjlwGBeUNjgORHqqu2u-21" value="Footer (C)" style="text;html=1;align=center;verticalAlign=middle;whiteSpace=wrap;rounded=0;" vertex="1" parent="1">
          <mxGeometry x="-1010" y="930" width="1080" height="20" as="geometry" />
        </mxCell>
        <mxCell id="dzjlwGBeUNjgORHqqu2u-22" value="margin" style="text;html=1;align=center;verticalAlign=middle;whiteSpace=wrap;rounded=0;" vertex="1" parent="1">
          <mxGeometry x="-1010" y="590" width="70" height="340" as="geometry" />
        </mxCell>
        <mxCell id="dzjlwGBeUNjgORHqqu2u-23" value="margin" style="text;html=1;align=center;verticalAlign=middle;whiteSpace=wrap;rounded=0;" vertex="1" parent="1">
          <mxGeometry y="590" width="70" height="340" as="geometry" />
        </mxCell>
        <mxCell id="dzjlwGBeUNjgORHqqu2u-24" value="" style="rounded=0;whiteSpace=wrap;html=1;" vertex="1" parent="1">
          <mxGeometry x="-740" y="590" width="530" height="340" as="geometry" />
        </mxCell>
        <mxCell id="dzjlwGBeUNjgORHqqu2u-25" value="Módosítások mentése" style="rounded=0;whiteSpace=wrap;html=1;" vertex="1" parent="1">
          <mxGeometry x="-535" y="844" width="120" height="40" as="geometry" />
        </mxCell>
        <mxCell id="dzjlwGBeUNjgORHqqu2u-26" value="Nyelv" style="rounded=0;whiteSpace=wrap;html=1;" vertex="1" parent="1">
          <mxGeometry x="-640" y="700" width="120" height="40" as="geometry" />
        </mxCell>
        <mxCell id="dzjlwGBeUNjgORHqqu2u-27" value="Beállítások" style="rounded=0;whiteSpace=wrap;html=1;" vertex="1" parent="1">
          <mxGeometry x="-670" y="620" width="400" height="40" as="geometry" />
        </mxCell>
        <mxCell id="dzjlwGBeUNjgORHqqu2u-28" value="X" style="rounded=0;whiteSpace=wrap;html=1;" vertex="1" parent="1">
          <mxGeometry x="-250" y="600" width="30" height="30" as="geometry" />
        </mxCell>
        <mxCell id="dzjlwGBeUNjgORHqqu2u-29" value="Sötét Mód" style="rounded=0;whiteSpace=wrap;html=1;" vertex="1" parent="1">
          <mxGeometry x="-430" y="700" width="120" height="40" as="geometry" />
        </mxCell>
        <mxCell id="dzjlwGBeUNjgORHqqu2u-30" style="edgeStyle=orthogonalEdgeStyle;rounded=0;orthogonalLoop=1;jettySize=auto;html=1;exitX=0.5;exitY=1;exitDx=0;exitDy=0;" edge="1" parent="1" source="dzjlwGBeUNjgORHqqu2u-26" target="dzjlwGBeUNjgORHqqu2u-26">
          <mxGeometry relative="1" as="geometry" />
        </mxCell>
        <mxCell id="dzjlwGBeUNjgORHqqu2u-31" value="" style="rounded=0;whiteSpace=wrap;html=1;" vertex="1" parent="1">
          <mxGeometry x="-1010" y="470" width="1080" height="480" as="geometry" />
        </mxCell>
        <mxCell id="dzjlwGBeUNjgORHqqu2u-32" value="" style="rounded=0;whiteSpace=wrap;html=1;" vertex="1" parent="1">
          <mxGeometry x="-1010" y="470" width="1080" height="120" as="geometry" />
        </mxCell>
        <mxCell id="dzjlwGBeUNjgORHqqu2u-33" style="edgeStyle=orthogonalEdgeStyle;rounded=0;orthogonalLoop=1;jettySize=auto;html=1;exitX=0.5;exitY=0;exitDx=0;exitDy=0;" edge="1" parent="1" source="dzjlwGBeUNjgORHqqu2u-34">
          <mxGeometry relative="1" as="geometry">
            <mxPoint x="-470" y="930" as="targetPoint" />
          </mxGeometry>
        </mxCell>
        <mxCell id="dzjlwGBeUNjgORHqqu2u-34" value="" style="rounded=0;whiteSpace=wrap;html=1;" vertex="1" parent="1">
          <mxGeometry x="-1010" y="930" width="1080" height="20" as="geometry" />
        </mxCell>
        <mxCell id="dzjlwGBeUNjgORHqqu2u-35" value="" style="rounded=0;whiteSpace=wrap;html=1;" vertex="1" parent="1">
          <mxGeometry x="-30" y="470" width="100" height="120" as="geometry" />
        </mxCell>
        <mxCell id="dzjlwGBeUNjgORHqqu2u-36" value="" style="rounded=0;whiteSpace=wrap;html=1;" vertex="1" parent="1">
          <mxGeometry x="-940" y="590" width="940" height="340" as="geometry" />
        </mxCell>
        <mxCell id="dzjlwGBeUNjgORHqqu2u-37" value="" style="rounded=0;whiteSpace=wrap;html=1;" vertex="1" parent="1">
          <mxGeometry x="-990" y="500" width="60" height="60" as="geometry" />
        </mxCell>
        <mxCell id="dzjlwGBeUNjgORHqqu2u-38" value="&lt;div&gt;Logo&lt;/div&gt;" style="text;html=1;align=center;verticalAlign=middle;whiteSpace=wrap;rounded=0;" vertex="1" parent="1">
          <mxGeometry x="-990" y="500" width="60" height="60" as="geometry" />
        </mxCell>
        <mxCell id="dzjlwGBeUNjgORHqqu2u-39" value="Footer (C)" style="text;html=1;align=center;verticalAlign=middle;whiteSpace=wrap;rounded=0;" vertex="1" parent="1">
          <mxGeometry x="-1010" y="930" width="1080" height="20" as="geometry" />
        </mxCell>
        <mxCell id="dzjlwGBeUNjgORHqqu2u-40" value="margin" style="text;html=1;align=center;verticalAlign=middle;whiteSpace=wrap;rounded=0;" vertex="1" parent="1">
          <mxGeometry x="-1010" y="590" width="70" height="340" as="geometry" />
        </mxCell>
        <mxCell id="dzjlwGBeUNjgORHqqu2u-41" value="margin" style="text;html=1;align=center;verticalAlign=middle;whiteSpace=wrap;rounded=0;" vertex="1" parent="1">
          <mxGeometry y="590" width="70" height="340" as="geometry" />
        </mxCell>
        <mxCell id="dzjlwGBeUNjgORHqqu2u-42" value="" style="rounded=0;whiteSpace=wrap;html=1;" vertex="1" parent="1">
          <mxGeometry x="-940" y="590" width="940" height="40" as="geometry" />
        </mxCell>
        <mxCell id="dzjlwGBeUNjgORHqqu2u-43" value="keresés..." style="rounded=0;whiteSpace=wrap;html=1;" vertex="1" parent="1">
          <mxGeometry x="-920" y="595" width="210" height="30" as="geometry" />
        </mxCell>
        <mxCell id="dzjlwGBeUNjgORHqqu2u-44" value="műfaj" style="rounded=0;whiteSpace=wrap;html=1;" vertex="1" parent="1">
          <mxGeometry x="-930" y="650" width="120" height="30" as="geometry" />
        </mxCell>
        <mxCell id="dzjlwGBeUNjgORHqqu2u-45" value="" style="rounded=0;whiteSpace=wrap;html=1;" vertex="1" parent="1">
          <mxGeometry x="-910" y="700" width="200" height="180" as="geometry" />
        </mxCell>
        <mxCell id="dzjlwGBeUNjgORHqqu2u-46" value="kép" style="rounded=0;whiteSpace=wrap;html=1;" vertex="1" parent="1">
          <mxGeometry x="-900" y="720" width="90" height="80" as="geometry" />
        </mxCell>
        <mxCell id="dzjlwGBeUNjgORHqqu2u-47" value="cím" style="rounded=0;whiteSpace=wrap;html=1;" vertex="1" parent="1">
          <mxGeometry x="-800" y="720" width="80" height="30" as="geometry" />
        </mxCell>
        <mxCell id="dzjlwGBeUNjgORHqqu2u-48" value="ár" style="rounded=0;whiteSpace=wrap;html=1;" vertex="1" parent="1">
          <mxGeometry x="-800" y="814" width="80" height="30" as="geometry" />
        </mxCell>
        <mxCell id="dzjlwGBeUNjgORHqqu2u-49" value="" style="rounded=0;whiteSpace=wrap;html=1;" vertex="1" parent="1">
          <mxGeometry x="-690" y="700" width="200" height="180" as="geometry" />
        </mxCell>
        <mxCell id="dzjlwGBeUNjgORHqqu2u-50" value="kép" style="rounded=0;whiteSpace=wrap;html=1;" vertex="1" parent="1">
          <mxGeometry x="-680" y="720" width="90" height="80" as="geometry" />
        </mxCell>
        <mxCell id="dzjlwGBeUNjgORHqqu2u-51" value="ár" style="rounded=0;whiteSpace=wrap;html=1;" vertex="1" parent="1">
          <mxGeometry x="-580" y="814" width="80" height="30" as="geometry" />
        </mxCell>
        <mxCell id="dzjlwGBeUNjgORHqqu2u-52" value="" style="rounded=0;whiteSpace=wrap;html=1;" vertex="1" parent="1">
          <mxGeometry x="-470" y="700" width="200" height="180" as="geometry" />
        </mxCell>
        <mxCell id="dzjlwGBeUNjgORHqqu2u-53" value="kép" style="rounded=0;whiteSpace=wrap;html=1;" vertex="1" parent="1">
          <mxGeometry x="-460" y="720" width="90" height="80" as="geometry" />
        </mxCell>
        <mxCell id="dzjlwGBeUNjgORHqqu2u-54" value="ár" style="rounded=0;whiteSpace=wrap;html=1;" vertex="1" parent="1">
          <mxGeometry x="-360" y="814" width="80" height="30" as="geometry" />
        </mxCell>
        <mxCell id="dzjlwGBeUNjgORHqqu2u-55" value="" style="rounded=0;whiteSpace=wrap;html=1;" vertex="1" parent="1">
          <mxGeometry x="-240" y="700" width="200" height="180" as="geometry" />
        </mxCell>
        <mxCell id="dzjlwGBeUNjgORHqqu2u-56" value="kép" style="rounded=0;whiteSpace=wrap;html=1;" vertex="1" parent="1">
          <mxGeometry x="-230" y="720" width="90" height="80" as="geometry" />
        </mxCell>
        <mxCell id="dzjlwGBeUNjgORHqqu2u-57" value="ár" style="rounded=0;whiteSpace=wrap;html=1;" vertex="1" parent="1">
          <mxGeometry x="-130" y="814" width="80" height="30" as="geometry" />
        </mxCell>
        <mxCell id="dzjlwGBeUNjgORHqqu2u-58" value="" style="rounded=0;whiteSpace=wrap;html=1;" vertex="1" parent="1">
          <mxGeometry x="-910" y="884" width="200" height="186" as="geometry" />
        </mxCell>
        <mxCell id="dzjlwGBeUNjgORHqqu2u-59" value="kép" style="rounded=0;whiteSpace=wrap;html=1;" vertex="1" parent="1">
          <mxGeometry x="-900" y="904" width="90" height="80" as="geometry" />
        </mxCell>
        <mxCell id="dzjlwGBeUNjgORHqqu2u-60" value="ár" style="rounded=0;whiteSpace=wrap;html=1;" vertex="1" parent="1">
          <mxGeometry x="-800" y="998" width="80" height="30" as="geometry" />
        </mxCell>
        <mxCell id="dzjlwGBeUNjgORHqqu2u-61" value="" style="rounded=0;whiteSpace=wrap;html=1;" vertex="1" parent="1">
          <mxGeometry x="-470" y="880" width="200" height="190" as="geometry" />
        </mxCell>
        <mxCell id="dzjlwGBeUNjgORHqqu2u-62" value="kép" style="rounded=0;whiteSpace=wrap;html=1;" vertex="1" parent="1">
          <mxGeometry x="-460" y="900" width="90" height="80" as="geometry" />
        </mxCell>
        <mxCell id="dzjlwGBeUNjgORHqqu2u-63" value="ár" style="rounded=0;whiteSpace=wrap;html=1;" vertex="1" parent="1">
          <mxGeometry x="-360" y="994" width="80" height="30" as="geometry" />
        </mxCell>
        <mxCell id="dzjlwGBeUNjgORHqqu2u-64" value="" style="rounded=0;whiteSpace=wrap;html=1;" vertex="1" parent="1">
          <mxGeometry x="-690" y="880" width="200" height="190" as="geometry" />
        </mxCell>
        <mxCell id="dzjlwGBeUNjgORHqqu2u-65" value="kép" style="rounded=0;whiteSpace=wrap;html=1;" vertex="1" parent="1">
          <mxGeometry x="-680" y="900" width="90" height="80" as="geometry" />
        </mxCell>
        <mxCell id="dzjlwGBeUNjgORHqqu2u-66" value="ár" style="rounded=0;whiteSpace=wrap;html=1;" vertex="1" parent="1">
          <mxGeometry x="-580" y="994" width="80" height="30" as="geometry" />
        </mxCell>
        <mxCell id="dzjlwGBeUNjgORHqqu2u-67" value="műfaj" style="rounded=0;whiteSpace=wrap;html=1;" vertex="1" parent="1">
          <mxGeometry x="-930" y="1080" width="120" height="30" as="geometry" />
        </mxCell>
        <mxCell id="dzjlwGBeUNjgORHqqu2u-68" value="" style="rounded=0;whiteSpace=wrap;html=1;" vertex="1" parent="1">
          <mxGeometry x="-910" y="1120" width="200" height="180" as="geometry" />
        </mxCell>
        <mxCell id="dzjlwGBeUNjgORHqqu2u-69" value="kép" style="rounded=0;whiteSpace=wrap;html=1;" vertex="1" parent="1">
          <mxGeometry x="-900" y="1130" width="90" height="80" as="geometry" />
        </mxCell>
        <mxCell id="dzjlwGBeUNjgORHqqu2u-70" value="ár" style="rounded=0;whiteSpace=wrap;html=1;" vertex="1" parent="1">
          <mxGeometry x="-800" y="1224" width="80" height="30" as="geometry" />
        </mxCell>
        <mxCell id="dzjlwGBeUNjgORHqqu2u-71" value="&amp;nbsp;Fiók Bej/Reg" style="rounded=0;whiteSpace=wrap;html=1;" vertex="1" parent="1">
          <mxGeometry x="-25" y="485" width="90" height="40" as="geometry" />
        </mxCell>
        <mxCell id="dzjlwGBeUNjgORHqqu2u-72" value="Profilom" style="rounded=0;whiteSpace=wrap;html=1;" vertex="1" parent="1">
          <mxGeometry x="-10" y="530" width="60" height="40" as="geometry" />
        </mxCell>
        <mxCell id="dzjlwGBeUNjgORHqqu2u-73" value="formátum" style="rounded=0;whiteSpace=wrap;html=1;" vertex="1" parent="1">
          <mxGeometry x="-797.5" y="764" width="75" height="36" as="geometry" />
        </mxCell>
        <mxCell id="dzjlwGBeUNjgORHqqu2u-74" value="Kezdőlap" style="rounded=0;whiteSpace=wrap;html=1;" vertex="1" parent="1">
          <mxGeometry x="-915" y="500" width="120" height="60" as="geometry" />
        </mxCell>
        <mxCell id="dzjlwGBeUNjgORHqqu2u-75" value="Zenék" style="rounded=0;whiteSpace=wrap;html=1;" vertex="1" parent="1">
          <mxGeometry x="-770" y="500" width="120" height="60" as="geometry" />
        </mxCell>
        <mxCell id="dzjlwGBeUNjgORHqqu2u-76" value="Filmek/Sorozatok" style="rounded=0;whiteSpace=wrap;html=1;" vertex="1" parent="1">
          <mxGeometry x="-625" y="500" width="120" height="60" as="geometry" />
        </mxCell>
        <mxCell id="dzjlwGBeUNjgORHqqu2u-77" value="Rendelési kosár" style="rounded=0;whiteSpace=wrap;html=1;" vertex="1" parent="1">
          <mxGeometry x="-475" y="550" width="120" height="40" as="geometry" />
        </mxCell>
        <mxCell id="dzjlwGBeUNjgORHqqu2u-78" value="Foglalási kosár" style="rounded=0;whiteSpace=wrap;html=1;" vertex="1" parent="1">
          <mxGeometry x="-330" y="550" width="120" height="40" as="geometry" />
        </mxCell>
        <mxCell id="dzjlwGBeUNjgORHqqu2u-79" value="Kapcsolat" style="rounded=0;whiteSpace=wrap;html=1;" vertex="1" parent="1">
          <mxGeometry x="-180" y="500" width="120" height="60" as="geometry" />
        </mxCell>
        <mxCell id="dzjlwGBeUNjgORHqqu2u-80" value="cím" style="rounded=0;whiteSpace=wrap;html=1;" vertex="1" parent="1">
          <mxGeometry x="-580" y="720" width="80" height="30" as="geometry" />
        </mxCell>
        <mxCell id="dzjlwGBeUNjgORHqqu2u-81" value="cím" style="rounded=0;whiteSpace=wrap;html=1;" vertex="1" parent="1">
          <mxGeometry x="-355" y="720" width="80" height="30" as="geometry" />
        </mxCell>
        <mxCell id="dzjlwGBeUNjgORHqqu2u-82" value="cím" style="rounded=0;whiteSpace=wrap;html=1;" vertex="1" parent="1">
          <mxGeometry x="-130" y="720" width="80" height="30" as="geometry" />
        </mxCell>
        <mxCell id="dzjlwGBeUNjgORHqqu2u-83" value="cím" style="rounded=0;whiteSpace=wrap;html=1;" vertex="1" parent="1">
          <mxGeometry x="-797.5" y="904" width="80" height="30" as="geometry" />
        </mxCell>
        <mxCell id="dzjlwGBeUNjgORHqqu2u-84" value="cím" style="rounded=0;whiteSpace=wrap;html=1;" vertex="1" parent="1">
          <mxGeometry x="-580" y="900" width="80" height="30" as="geometry" />
        </mxCell>
        <mxCell id="dzjlwGBeUNjgORHqqu2u-85" value="cím" style="rounded=0;whiteSpace=wrap;html=1;" vertex="1" parent="1">
          <mxGeometry x="-360" y="900" width="80" height="30" as="geometry" />
        </mxCell>
        <mxCell id="dzjlwGBeUNjgORHqqu2u-86" value="cím" style="rounded=0;whiteSpace=wrap;html=1;" vertex="1" parent="1">
          <mxGeometry x="-800" y="1130" width="80" height="30" as="geometry" />
        </mxCell>
        <mxCell id="dzjlwGBeUNjgORHqqu2u-87" value="formátum" style="rounded=0;whiteSpace=wrap;html=1;" vertex="1" parent="1">
          <mxGeometry x="-577.5" y="764" width="75" height="36" as="geometry" />
        </mxCell>
        <mxCell id="dzjlwGBeUNjgORHqqu2u-88" value="formátum" style="rounded=0;whiteSpace=wrap;html=1;" vertex="1" parent="1">
          <mxGeometry x="-352.5" y="764" width="75" height="36" as="geometry" />
        </mxCell>
        <mxCell id="dzjlwGBeUNjgORHqqu2u-89" value="formátum" style="rounded=0;whiteSpace=wrap;html=1;" vertex="1" parent="1">
          <mxGeometry x="-125" y="764" width="75" height="36" as="geometry" />
        </mxCell>
        <mxCell id="dzjlwGBeUNjgORHqqu2u-90" value="formátum" style="rounded=0;whiteSpace=wrap;html=1;" vertex="1" parent="1">
          <mxGeometry x="-797.5" y="942" width="75" height="36" as="geometry" />
        </mxCell>
        <mxCell id="dzjlwGBeUNjgORHqqu2u-91" value="formátum" style="rounded=0;whiteSpace=wrap;html=1;" vertex="1" parent="1">
          <mxGeometry x="-577.5" y="944" width="75" height="36" as="geometry" />
        </mxCell>
        <mxCell id="dzjlwGBeUNjgORHqqu2u-92" value="formátum" style="rounded=0;whiteSpace=wrap;html=1;" vertex="1" parent="1">
          <mxGeometry x="-357.5" y="944" width="75" height="36" as="geometry" />
        </mxCell>
        <mxCell id="dzjlwGBeUNjgORHqqu2u-93" value="formátum" style="rounded=0;whiteSpace=wrap;html=1;" vertex="1" parent="1">
          <mxGeometry x="-797.5" y="1174" width="75" height="36" as="geometry" />
        </mxCell>
        <mxCell id="dzjlwGBeUNjgORHqqu2u-94" value="Kosár" style="rounded=0;whiteSpace=wrap;html=1;" vertex="1" parent="1">
          <mxGeometry x="-475" y="500" width="265" height="60" as="geometry" />
        </mxCell>
        <mxCell id="dzjlwGBeUNjgORHqqu2u-95" value="Nyelv" style="rounded=0;whiteSpace=wrap;html=1;" vertex="1" parent="1">
          <mxGeometry x="-502.5" y="595" width="130" height="25" as="geometry" />
        </mxCell>
        <mxCell id="dzjlwGBeUNjgORHqqu2u-96" value="Műfaj" style="rounded=0;whiteSpace=wrap;html=1;" vertex="1" parent="1">
          <mxGeometry x="-680" y="595" width="120" height="25" as="geometry" />
        </mxCell>
        <mxCell id="dzjlwGBeUNjgORHqqu2u-97" value="Ár" style="rounded=0;whiteSpace=wrap;html=1;" vertex="1" parent="1">
          <mxGeometry x="-310" y="595" width="130" height="25" as="geometry" />
        </mxCell>
        <mxCell id="dzjlwGBeUNjgORHqqu2u-98" value="" style="html=1;shadow=0;dashed=0;align=center;verticalAlign=middle;shape=mxgraph.arrows2.arrow;dy=0.6;dx=40;direction=south;notch=0;" vertex="1" parent="1">
          <mxGeometry x="-415" y="600" width="40" height="20" as="geometry" />
        </mxCell>
        <mxCell id="dzjlwGBeUNjgORHqqu2u-99" value="" style="html=1;shadow=0;dashed=0;align=center;verticalAlign=middle;shape=mxgraph.arrows2.arrow;dy=0.6;dx=40;direction=south;notch=0;" vertex="1" parent="1">
          <mxGeometry x="-600" y="600" width="40" height="20" as="geometry" />
        </mxCell>
        <mxCell id="dzjlwGBeUNjgORHqqu2u-100" value="" style="html=1;shadow=0;dashed=0;align=center;verticalAlign=middle;shape=mxgraph.arrows2.arrow;dy=0.6;dx=40;direction=south;notch=0;" vertex="1" parent="1">
          <mxGeometry x="-220" y="597.5" width="40" height="20" as="geometry" />
        </mxCell>
        <mxCell id="dzjlwGBeUNjgORHqqu2u-101" value="" style="shape=flexArrow;endArrow=classic;html=1;rounded=0;" edge="1" parent="1" source="dzjlwGBeUNjgORHqqu2u-98">
          <mxGeometry width="50" height="50" relative="1" as="geometry">
            <mxPoint x="-380" y="450" as="sourcePoint" />
            <mxPoint x="-330" y="400" as="targetPoint" />
          </mxGeometry>
        </mxCell>
        <mxCell id="dzjlwGBeUNjgORHqqu2u-102" value="" style="shape=flexArrow;endArrow=classic;html=1;rounded=0;entryX=0.004;entryY=0.887;entryDx=0;entryDy=0;entryPerimeter=0;" edge="1" parent="1" source="dzjlwGBeUNjgORHqqu2u-99" target="dzjlwGBeUNjgORHqqu2u-104">
          <mxGeometry width="50" height="50" relative="1" as="geometry">
            <mxPoint x="-240" y="578" as="sourcePoint" />
            <mxPoint x="-280" y="410" as="targetPoint" />
          </mxGeometry>
        </mxCell>
        <mxCell id="dzjlwGBeUNjgORHqqu2u-103" value="" style="shape=flexArrow;endArrow=classic;html=1;rounded=0;" edge="1" parent="1" source="dzjlwGBeUNjgORHqqu2u-100">
          <mxGeometry width="50" height="50" relative="1" as="geometry">
            <mxPoint x="-94.5" y="599" as="sourcePoint" />
            <mxPoint x="-250" y="400" as="targetPoint" />
          </mxGeometry>
        </mxCell>
        <mxCell id="dzjlwGBeUNjgORHqqu2u-104" value="Dropdown" style="rounded=0;whiteSpace=wrap;html=1;" vertex="1" parent="1">
          <mxGeometry x="-365" y="340" width="165" height="60" as="geometry" />
        </mxCell>
        <mxCell id="dzjlwGBeUNjgORHqqu2u-105" value="darabszám&lt;span style=&quot;color: rgba(0, 0, 0, 0); font-family: monospace; font-size: 0px; text-align: start; text-wrap: nowrap;&quot;&gt;%3CmxGraphModel%3E%3Croot%3E%3CmxCell%20id%3D%220%22%2F%3E%3CmxCell%20id%3D%221%22%20parent%3D%220%22%2F%3E%3CmxCell%20id%3D%222%22%20value%3D%22%22%20style%3D%22shape%3DflexArrow%3BendArrow%3Dclassic%3Bhtml%3D1%3Brounded%3D0%3B%22%20edge%3D%221%22%20parent%3D%221%22%3E%3CmxGeometry%20width%3D%2250%22%20height%3D%2250%22%20relative%3D%221%22%20as%3D%22geometry%22%3E%3CmxPoint%20x%3D%221381%22%20y%3D%221078%22%20as%3D%22sourcePoint%22%2F%3E%3CmxPoint%20x%3D%221360%22%20y%3D%22890%22%20as%3D%22targetPoint%22%2F%3E%3C%2FmxGeometry%3E%3C%2FmxCell%3E%3C%2Froot%3E%3C%2FmxGraphModel%3E&lt;/span&gt;" style="rounded=0;whiteSpace=wrap;html=1;" vertex="1" parent="1">
          <mxGeometry x="-900" y="814" width="90" height="40" as="geometry" />
        </mxCell>
        <mxCell id="dzjlwGBeUNjgORHqqu2u-106" value="darabszám&lt;span style=&quot;color: rgba(0, 0, 0, 0); font-family: monospace; font-size: 0px; text-align: start; text-wrap: nowrap;&quot;&gt;%3CmxGraphModel%3E%3Croot%3E%3CmxCell%20id%3D%220%22%2F%3E%3CmxCell%20id%3D%221%22%20parent%3D%220%22%2F%3E%3CmxCell%20id%3D%222%22%20value%3D%22%22%20style%3D%22shape%3DflexArrow%3BendArrow%3Dclassic%3Bhtml%3D1%3Brounded%3D0%3B%22%20edge%3D%221%22%20parent%3D%221%22%3E%3CmxGeometry%20width%3D%2250%22%20height%3D%2250%22%20relative%3D%221%22%20as%3D%22geometry%22%3E%3CmxPoint%20x%3D%221381%22%20y%3D%221078%22%20as%3D%22sourcePoint%22%2F%3E%3CmxPoint%20x%3D%221360%22%20y%3D%22890%22%20as%3D%22targetPoint%22%2F%3E%3C%2FmxGeometry%3E%3C%2FmxCell%3E%3C%2Froot%3E%3C%2FmxGraphModel%3E&lt;/span&gt;" style="rounded=0;whiteSpace=wrap;html=1;" vertex="1" parent="1">
          <mxGeometry x="-680" y="814" width="90" height="40" as="geometry" />
        </mxCell>
        <mxCell id="dzjlwGBeUNjgORHqqu2u-107" value="darabszám&lt;span style=&quot;color: rgba(0, 0, 0, 0); font-family: monospace; font-size: 0px; text-align: start; text-wrap: nowrap;&quot;&gt;%3CmxGraphModel%3E%3Croot%3E%3CmxCell%20id%3D%220%22%2F%3E%3CmxCell%20id%3D%221%22%20parent%3D%220%22%2F%3E%3CmxCell%20id%3D%222%22%20value%3D%22%22%20style%3D%22shape%3DflexArrow%3BendArrow%3Dclassic%3Bhtml%3D1%3Brounded%3D0%3B%22%20edge%3D%221%22%20parent%3D%221%22%3E%3CmxGeometry%20width%3D%2250%22%20height%3D%2250%22%20relative%3D%221%22%20as%3D%22geometry%22%3E%3CmxPoint%20x%3D%221381%22%20y%3D%221078%22%20as%3D%22sourcePoint%22%2F%3E%3CmxPoint%20x%3D%221360%22%20y%3D%22890%22%20as%3D%22targetPoint%22%2F%3E%3C%2FmxGeometry%3E%3C%2FmxCell%3E%3C%2Froot%3E%3C%2FmxGraphModel%3E&lt;/span&gt;" style="rounded=0;whiteSpace=wrap;html=1;" vertex="1" parent="1">
          <mxGeometry x="-460" y="814" width="90" height="40" as="geometry" />
        </mxCell>
        <mxCell id="dzjlwGBeUNjgORHqqu2u-108" value="darabszám&lt;span style=&quot;color: rgba(0, 0, 0, 0); font-family: monospace; font-size: 0px; text-align: start; text-wrap: nowrap;&quot;&gt;%3CmxGraphModel%3E%3Croot%3E%3CmxCell%20id%3D%220%22%2F%3E%3CmxCell%20id%3D%221%22%20parent%3D%220%22%2F%3E%3CmxCell%20id%3D%222%22%20value%3D%22%22%20style%3D%22shape%3DflexArrow%3BendArrow%3Dclassic%3Bhtml%3D1%3Brounded%3D0%3B%22%20edge%3D%221%22%20parent%3D%221%22%3E%3CmxGeometry%20width%3D%2250%22%20height%3D%2250%22%20relative%3D%221%22%20as%3D%22geometry%22%3E%3CmxPoint%20x%3D%221381%22%20y%3D%221078%22%20as%3D%22sourcePoint%22%2F%3E%3CmxPoint%20x%3D%221360%22%20y%3D%22890%22%20as%3D%22targetPoint%22%2F%3E%3C%2FmxGeometry%3E%3C%2FmxCell%3E%3C%2Froot%3E%3C%2FmxGraphModel%3E&lt;/span&gt;" style="rounded=0;whiteSpace=wrap;html=1;" vertex="1" parent="1">
          <mxGeometry x="-230" y="814" width="90" height="40" as="geometry" />
        </mxCell>
        <mxCell id="dzjlwGBeUNjgORHqqu2u-109" value="darabszám&lt;span style=&quot;color: rgba(0, 0, 0, 0); font-family: monospace; font-size: 0px; text-align: start; text-wrap: nowrap;&quot;&gt;%3CmxGraphModel%3E%3Croot%3E%3CmxCell%20id%3D%220%22%2F%3E%3CmxCell%20id%3D%221%22%20parent%3D%220%22%2F%3E%3CmxCell%20id%3D%222%22%20value%3D%22%22%20style%3D%22shape%3DflexArrow%3BendArrow%3Dclassic%3Bhtml%3D1%3Brounded%3D0%3B%22%20edge%3D%221%22%20parent%3D%221%22%3E%3CmxGeometry%20width%3D%2250%22%20height%3D%2250%22%20relative%3D%221%22%20as%3D%22geometry%22%3E%3CmxPoint%20x%3D%221381%22%20y%3D%221078%22%20as%3D%22sourcePoint%22%2F%3E%3CmxPoint%20x%3D%221360%22%20y%3D%22890%22%20as%3D%22targetPoint%22%2F%3E%3C%2FmxGeometry%3E%3C%2FmxCell%3E%3C%2Froot%3E%3C%2FmxGraphModel%3E&lt;/span&gt;" style="rounded=0;whiteSpace=wrap;html=1;" vertex="1" parent="1">
          <mxGeometry x="-900" y="994" width="90" height="40" as="geometry" />
        </mxCell>
        <mxCell id="dzjlwGBeUNjgORHqqu2u-110" value="darabszám&lt;span style=&quot;color: rgba(0, 0, 0, 0); font-family: monospace; font-size: 0px; text-align: start; text-wrap: nowrap;&quot;&gt;%3CmxGraphModel%3E%3Croot%3E%3CmxCell%20id%3D%220%22%2F%3E%3CmxCell%20id%3D%221%22%20parent%3D%220%22%2F%3E%3CmxCell%20id%3D%222%22%20value%3D%22%22%20style%3D%22shape%3DflexArrow%3BendArrow%3Dclassic%3Bhtml%3D1%3Brounded%3D0%3B%22%20edge%3D%221%22%20parent%3D%221%22%3E%3CmxGeometry%20width%3D%2250%22%20height%3D%2250%22%20relative%3D%221%22%20as%3D%22geometry%22%3E%3CmxPoint%20x%3D%221381%22%20y%3D%221078%22%20as%3D%22sourcePoint%22%2F%3E%3CmxPoint%20x%3D%221360%22%20y%3D%22890%22%20as%3D%22targetPoint%22%2F%3E%3C%2FmxGeometry%3E%3C%2FmxCell%3E%3C%2Froot%3E%3C%2FmxGraphModel%3E&lt;/span&gt;" style="rounded=0;whiteSpace=wrap;html=1;" vertex="1" parent="1">
          <mxGeometry x="-680" y="993" width="90" height="40" as="geometry" />
        </mxCell>
        <mxCell id="dzjlwGBeUNjgORHqqu2u-111" value="darabszám&lt;span style=&quot;color: rgba(0, 0, 0, 0); font-family: monospace; font-size: 0px; text-align: start; text-wrap: nowrap;&quot;&gt;%3CmxGraphModel%3E%3Croot%3E%3CmxCell%20id%3D%220%22%2F%3E%3CmxCell%20id%3D%221%22%20parent%3D%220%22%2F%3E%3CmxCell%20id%3D%222%22%20value%3D%22%22%20style%3D%22shape%3DflexArrow%3BendArrow%3Dclassic%3Bhtml%3D1%3Brounded%3D0%3B%22%20edge%3D%221%22%20parent%3D%221%22%3E%3CmxGeometry%20width%3D%2250%22%20height%3D%2250%22%20relative%3D%221%22%20as%3D%22geometry%22%3E%3CmxPoint%20x%3D%221381%22%20y%3D%221078%22%20as%3D%22sourcePoint%22%2F%3E%3CmxPoint%20x%3D%221360%22%20y%3D%22890%22%20as%3D%22targetPoint%22%2F%3E%3C%2FmxGeometry%3E%3C%2FmxCell%3E%3C%2Froot%3E%3C%2FmxGraphModel%3E&lt;/span&gt;" style="rounded=0;whiteSpace=wrap;html=1;" vertex="1" parent="1">
          <mxGeometry x="-460" y="993" width="90" height="40" as="geometry" />
        </mxCell>
        <mxCell id="dzjlwGBeUNjgORHqqu2u-112" value="darabszám&lt;span style=&quot;color: rgba(0, 0, 0, 0); font-family: monospace; font-size: 0px; text-align: start; text-wrap: nowrap;&quot;&gt;%3CmxGraphModel%3E%3Croot%3E%3CmxCell%20id%3D%220%22%2F%3E%3CmxCell%20id%3D%221%22%20parent%3D%220%22%2F%3E%3CmxCell%20id%3D%222%22%20value%3D%22%22%20style%3D%22shape%3DflexArrow%3BendArrow%3Dclassic%3Bhtml%3D1%3Brounded%3D0%3B%22%20edge%3D%221%22%20parent%3D%221%22%3E%3CmxGeometry%20width%3D%2250%22%20height%3D%2250%22%20relative%3D%221%22%20as%3D%22geometry%22%3E%3CmxPoint%20x%3D%221381%22%20y%3D%221078%22%20as%3D%22sourcePoint%22%2F%3E%3CmxPoint%20x%3D%221360%22%20y%3D%22890%22%20as%3D%22targetPoint%22%2F%3E%3C%2FmxGeometry%3E%3C%2FmxCell%3E%3C%2Froot%3E%3C%2FmxGraphModel%3E&lt;/span&gt;" style="rounded=0;whiteSpace=wrap;html=1;" vertex="1" parent="1">
          <mxGeometry x="-900" y="1224" width="90" height="40" as="geometry" />
        </mxCell>
        <mxCell id="dzjlwGBeUNjgORHqqu2u-113" value="Formátum" style="rounded=0;whiteSpace=wrap;html=1;" vertex="1" parent="1">
          <mxGeometry x="-130" y="595" width="130" height="25" as="geometry" />
        </mxCell>
        <mxCell id="dzjlwGBeUNjgORHqqu2u-114" value="" style="html=1;shadow=0;dashed=0;align=center;verticalAlign=middle;shape=mxgraph.arrows2.arrow;dy=0.6;dx=40;direction=south;notch=0;" vertex="1" parent="1">
          <mxGeometry x="-40" y="600" width="40" height="20" as="geometry" />
        </mxCell>
        <mxCell id="dzjlwGBeUNjgORHqqu2u-115" value="" style="shape=flexArrow;endArrow=classic;html=1;rounded=0;entryX=0.909;entryY=1.048;entryDx=0;entryDy=0;entryPerimeter=0;" edge="1" parent="1" source="dzjlwGBeUNjgORHqqu2u-114" target="dzjlwGBeUNjgORHqqu2u-104">
          <mxGeometry width="50" height="50" relative="1" as="geometry">
            <mxPoint x="-10" y="604" as="sourcePoint" />
            <mxPoint x="-86" y="406" as="targetPoint" />
          </mxGeometry>
        </mxCell>
        <mxCell id="dzjlwGBeUNjgORHqqu2u-119" value="Kosárba helyezés" style="rounded=0;whiteSpace=wrap;html=1;" vertex="1" parent="1">
          <mxGeometry x="-860" y="860.5" width="120" height="19.5" as="geometry" />
        </mxCell>
        <mxCell id="dzjlwGBeUNjgORHqqu2u-120" value="Kosárba helyezés" style="rounded=0;whiteSpace=wrap;html=1;" vertex="1" parent="1">
          <mxGeometry x="-649" y="860.5" width="120" height="19.5" as="geometry" />
        </mxCell>
        <mxCell id="dzjlwGBeUNjgORHqqu2u-121" value="Kosárba helyezés" style="rounded=0;whiteSpace=wrap;html=1;" vertex="1" parent="1">
          <mxGeometry x="-430" y="860.5" width="120" height="19.5" as="geometry" />
        </mxCell>
        <mxCell id="dzjlwGBeUNjgORHqqu2u-122" value="Kosárba helyezés" style="rounded=0;whiteSpace=wrap;html=1;" vertex="1" parent="1">
          <mxGeometry x="-200" y="860.5" width="120" height="19.5" as="geometry" />
        </mxCell>
        <mxCell id="dzjlwGBeUNjgORHqqu2u-123" value="Kosárba helyezés" style="rounded=0;whiteSpace=wrap;html=1;" vertex="1" parent="1">
          <mxGeometry x="-870" y="1050.5" width="120" height="19.5" as="geometry" />
        </mxCell>
        <mxCell id="dzjlwGBeUNjgORHqqu2u-124" value="Kosárba helyezés" style="rounded=0;whiteSpace=wrap;html=1;" vertex="1" parent="1">
          <mxGeometry x="-640" y="1040" width="120" height="19.5" as="geometry" />
        </mxCell>
        <mxCell id="dzjlwGBeUNjgORHqqu2u-125" value="Kosárba helyezés" style="rounded=0;whiteSpace=wrap;html=1;" vertex="1" parent="1">
          <mxGeometry x="-430" y="1040" width="120" height="19.5" as="geometry" />
        </mxCell>
        <mxCell id="dzjlwGBeUNjgORHqqu2u-126" value="Kosárba helyezés" style="rounded=0;whiteSpace=wrap;html=1;" vertex="1" parent="1">
          <mxGeometry x="-870" y="1270" width="120" height="19.5" as="geometry" />
        </mxCell>
      </root>
    </mxGraphModel>
  </diagram>
</mxfile>
